# xmcd
#
# Track frame offsets:
#	150
#	16663
#	34875
#	52432
#	67729
#	76740
#	87081
#	95693
#	117284
#	134488
#	149938
#	172517
#	184501
#	199275
#	215402
#	233272
#	247325
#	269438
#	287769
#	307405
#	332829
#
# Disc length: 4669
#
# Revision: 1
# Processed by: cddbd v1.5.2PL0 Copyright (c) Steve Scherf et al.
# Submitted via: kJams Pro 1.0b31
#
DISCID=39123b15
DTITLE=Unknown Artist - Zoom Musicals Pop Box Disc 5
DYEAR=2018
DGENRE=Musical
TTITLE0=Mamma Mia (Musical) - Mamma Mia [ABBA Version]
TTITLE1=Mamma Mia (Musical) - Thank You For The Music [ABBA Version]
TTITLE2=Tangled (Disney) (Duet) - I See The Light
TTITLE3=Mary Poppins (Disney) (Duet) - Jolly Holiday
TTITLE4=Mary Poppins (Disney) - Sister Suffragette
TTITLE5=Mary Poppins (Disney) (Duet) - Supercalifragilisticexpialidocious
TTITLE6=Mary Poppins (Disney) - The Perfect Nanny
TTITLE7=Kismet (Musical) - Stranger In Paradise§And This Is My Beloved (Medley)
TTITLE8=Man Of La Mancha (Musical) - The Impossible Dream [Michael Ball Version]
TTITLE9=Jekyll And Hyde (Musical) - This Is The Moment [Michael Ball Version]
TTITLE10=Moulin Rouge (Musical) (Duet) - Come What May
TTITLE11=Mulan (Disney) (Duet) - A Girl Worth Fighting For
TTITLE12=Mulan (Disney) - Honour To Us All
TTITLE13=Mulan (Disney) - I'll Make A Man Out Of You
TTITLE14=My Fair Lady (Musical) - I Could Have Danced All Night
TTITLE15=My Fair Lady (Musical) - On The Street Where You Live
TTITLE16=Oliver (Musical) - As Long As He Needs Me
TTITLE17=Oliver (Musical) - Consider Yourself
TTITLE18=Phantom Of The Opera (Musical) - All I Ask Of You
TTITLE19=Phantom Of The Opera (Musical) - The Music Of The Night
TTITLE20=Randy Newman - I Love To See You Smile [Musical]
EXTD=
EXTT0=
EXTT1=
EXTT2=
EXTT3=
EXTT4=
EXTT5=
EXTT6=
EXTT7=
EXTT8=
EXTT9=
EXTT10=
EXTT11=
EXTT12=
EXTT13=
EXTT14=
EXTT15=
EXTT16=
EXTT17=
EXTT18=
EXTT19=
EXTT20=
PLAYORDER=
